<mxfile host="app.diagrams.net" modified="2024-04-02T14:47:20.256Z" agent="Mozilla/5.0 (Windows NT 10.0; Win64; x64) AppleWebKit/537.36 (KHTML, like Gecko) Chrome/123.0.0.0 Safari/537.36" etag="Anf6d2LX-1YaneBqtLp1" version="24.2.1" type="device">
  <diagram name="페이지-1" id="xxHFP_9Wf0fFpEPEyO19">
    <mxGraphModel dx="1032" dy="1096" grid="1" gridSize="10" guides="1" tooltips="1" connect="1" arrows="1" fold="1" page="1" pageScale="1" pageWidth="827" pageHeight="1169" math="0" shadow="0">
      <root>
        <mxCell id="0" />
        <mxCell id="1" parent="0" />
        <mxCell id="Hnp2i-aEPVbjj3ETL5oO-1" value="Actor" style="shape=umlActor;verticalLabelPosition=bottom;verticalAlign=top;html=1;outlineConnect=0;fontStyle=1" vertex="1" parent="1">
          <mxGeometry x="100" y="120" width="30" height="60" as="geometry" />
        </mxCell>
        <mxCell id="Hnp2i-aEPVbjj3ETL5oO-2" value="" style="endArrow=none;dashed=1;html=1;dashPattern=1 3;strokeWidth=2;rounded=0;fontStyle=1" edge="1" parent="1">
          <mxGeometry width="50" height="50" relative="1" as="geometry">
            <mxPoint x="110" y="790" as="sourcePoint" />
            <mxPoint x="110" y="190" as="targetPoint" />
          </mxGeometry>
        </mxCell>
        <mxCell id="Hnp2i-aEPVbjj3ETL5oO-3" value="대기열" style="rounded=0;whiteSpace=wrap;html=1;fontStyle=1" vertex="1" parent="1">
          <mxGeometry x="190" y="130" width="120" height="60" as="geometry" />
        </mxCell>
        <mxCell id="Hnp2i-aEPVbjj3ETL5oO-4" value="날짜 조회" style="rounded=0;whiteSpace=wrap;html=1;fontStyle=1" vertex="1" parent="1">
          <mxGeometry x="370" y="130" width="120" height="60" as="geometry" />
        </mxCell>
        <mxCell id="Hnp2i-aEPVbjj3ETL5oO-5" value="좌석 조회" style="rounded=0;whiteSpace=wrap;html=1;fontStyle=1" vertex="1" parent="1">
          <mxGeometry x="540" y="130" width="120" height="60" as="geometry" />
        </mxCell>
        <mxCell id="Hnp2i-aEPVbjj3ETL5oO-6" value="예약 요청" style="rounded=0;whiteSpace=wrap;html=1;fontStyle=1" vertex="1" parent="1">
          <mxGeometry x="707" y="130" width="120" height="60" as="geometry" />
        </mxCell>
        <mxCell id="Hnp2i-aEPVbjj3ETL5oO-7" value="결제" style="rounded=0;whiteSpace=wrap;html=1;fontStyle=1" vertex="1" parent="1">
          <mxGeometry x="870" y="130" width="120" height="60" as="geometry" />
        </mxCell>
        <mxCell id="Hnp2i-aEPVbjj3ETL5oO-8" value="" style="endArrow=none;html=1;rounded=0;fontStyle=1" edge="1" parent="1" source="Hnp2i-aEPVbjj3ETL5oO-18">
          <mxGeometry width="50" height="50" relative="1" as="geometry">
            <mxPoint x="249.5" y="640" as="sourcePoint" />
            <mxPoint x="249.5" y="200" as="targetPoint" />
          </mxGeometry>
        </mxCell>
        <mxCell id="Hnp2i-aEPVbjj3ETL5oO-9" value="" style="endArrow=none;html=1;rounded=0;fontStyle=1" edge="1" parent="1">
          <mxGeometry width="50" height="50" relative="1" as="geometry">
            <mxPoint x="429.5" y="640" as="sourcePoint" />
            <mxPoint x="429.5" y="200" as="targetPoint" />
          </mxGeometry>
        </mxCell>
        <mxCell id="Hnp2i-aEPVbjj3ETL5oO-10" value="" style="endArrow=none;html=1;rounded=0;fontStyle=1" edge="1" parent="1" source="Hnp2i-aEPVbjj3ETL5oO-34">
          <mxGeometry width="50" height="50" relative="1" as="geometry">
            <mxPoint x="599.5" y="640" as="sourcePoint" />
            <mxPoint x="599.5" y="200" as="targetPoint" />
          </mxGeometry>
        </mxCell>
        <mxCell id="Hnp2i-aEPVbjj3ETL5oO-11" value="" style="endArrow=none;html=1;rounded=0;fontStyle=1" edge="1" parent="1" source="Hnp2i-aEPVbjj3ETL5oO-41">
          <mxGeometry width="50" height="50" relative="1" as="geometry">
            <mxPoint x="766.5" y="640" as="sourcePoint" />
            <mxPoint x="766.5" y="200" as="targetPoint" />
          </mxGeometry>
        </mxCell>
        <mxCell id="Hnp2i-aEPVbjj3ETL5oO-12" value="" style="endArrow=none;html=1;rounded=0;fontStyle=1" edge="1" parent="1" source="Hnp2i-aEPVbjj3ETL5oO-45">
          <mxGeometry width="50" height="50" relative="1" as="geometry">
            <mxPoint x="930" y="790" as="sourcePoint" />
            <mxPoint x="929.5" y="200" as="targetPoint" />
          </mxGeometry>
        </mxCell>
        <mxCell id="Hnp2i-aEPVbjj3ETL5oO-13" value="" style="endArrow=classic;html=1;rounded=0;fontStyle=1" edge="1" parent="1">
          <mxGeometry width="50" height="50" relative="1" as="geometry">
            <mxPoint x="130" y="250" as="sourcePoint" />
            <mxPoint x="230" y="250" as="targetPoint" />
          </mxGeometry>
        </mxCell>
        <mxCell id="Hnp2i-aEPVbjj3ETL5oO-14" value="" style="endArrow=classic;html=1;rounded=0;fontStyle=1" edge="1" parent="1">
          <mxGeometry width="50" height="50" relative="1" as="geometry">
            <mxPoint x="230" y="290" as="sourcePoint" />
            <mxPoint x="130" y="290" as="targetPoint" />
          </mxGeometry>
        </mxCell>
        <mxCell id="Hnp2i-aEPVbjj3ETL5oO-15" value="대기열 진입" style="text;html=1;align=center;verticalAlign=middle;whiteSpace=wrap;rounded=0;fontStyle=1" vertex="1" parent="1">
          <mxGeometry x="140" y="220" width="70" height="30" as="geometry" />
        </mxCell>
        <mxCell id="Hnp2i-aEPVbjj3ETL5oO-16" value="대기순서 반환" style="text;html=1;align=center;verticalAlign=middle;whiteSpace=wrap;rounded=0;fontStyle=1" vertex="1" parent="1">
          <mxGeometry x="140" y="300" width="80" height="30" as="geometry" />
        </mxCell>
        <mxCell id="Hnp2i-aEPVbjj3ETL5oO-19" value="" style="endArrow=none;html=1;rounded=0;fontStyle=1" edge="1" parent="1" target="Hnp2i-aEPVbjj3ETL5oO-18">
          <mxGeometry width="50" height="50" relative="1" as="geometry">
            <mxPoint x="250" y="770" as="sourcePoint" />
            <mxPoint x="249.5" y="200" as="targetPoint" />
          </mxGeometry>
        </mxCell>
        <mxCell id="Hnp2i-aEPVbjj3ETL5oO-18" value="" style="html=1;points=[[0,0,0,0,5],[0,1,0,0,-5],[1,0,0,0,5],[1,1,0,0,-5]];perimeter=orthogonalPerimeter;outlineConnect=0;targetShapes=umlLifeline;portConstraint=eastwest;newEdgeStyle={&quot;curved&quot;:0,&quot;rounded&quot;:0};fontStyle=1" vertex="1" parent="1">
          <mxGeometry x="245" y="240" width="10" height="480" as="geometry" />
        </mxCell>
        <mxCell id="Hnp2i-aEPVbjj3ETL5oO-21" value="" style="endArrow=classic;html=1;rounded=0;fontStyle=1" edge="1" parent="1">
          <mxGeometry width="50" height="50" relative="1" as="geometry">
            <mxPoint x="274" y="360" as="sourcePoint" />
            <mxPoint x="414" y="360" as="targetPoint" />
          </mxGeometry>
        </mxCell>
        <mxCell id="Hnp2i-aEPVbjj3ETL5oO-23" value="&amp;nbsp;날짜 조회" style="edgeLabel;html=1;align=center;verticalAlign=middle;resizable=0;points=[];fontStyle=1" vertex="1" connectable="0" parent="Hnp2i-aEPVbjj3ETL5oO-21">
          <mxGeometry x="-0.0476" relative="1" as="geometry">
            <mxPoint y="-15" as="offset" />
          </mxGeometry>
        </mxCell>
        <mxCell id="Hnp2i-aEPVbjj3ETL5oO-22" value="&lt;span&gt;날짜 조회 API 진입&lt;/span&gt;" style="text;html=1;align=center;verticalAlign=middle;whiteSpace=wrap;rounded=0;fontStyle=1" vertex="1" parent="1">
          <mxGeometry x="150" y="350" width="105" height="30" as="geometry" />
        </mxCell>
        <mxCell id="Hnp2i-aEPVbjj3ETL5oO-27" value="" style="endArrow=classic;html=1;rounded=0;fontStyle=1" edge="1" parent="1">
          <mxGeometry width="50" height="50" relative="1" as="geometry">
            <mxPoint x="414" y="400" as="sourcePoint" />
            <mxPoint x="274" y="400" as="targetPoint" />
          </mxGeometry>
        </mxCell>
        <mxCell id="Hnp2i-aEPVbjj3ETL5oO-28" value="예약가능 날짜 반환" style="edgeLabel;html=1;align=center;verticalAlign=middle;resizable=0;points=[];fontStyle=1" vertex="1" connectable="0" parent="Hnp2i-aEPVbjj3ETL5oO-27">
          <mxGeometry x="0.0905" y="2" relative="1" as="geometry">
            <mxPoint y="-12" as="offset" />
          </mxGeometry>
        </mxCell>
        <mxCell id="Hnp2i-aEPVbjj3ETL5oO-29" value="" style="endArrow=classic;html=1;rounded=0;fontStyle=1" edge="1" parent="1">
          <mxGeometry width="50" height="50" relative="1" as="geometry">
            <mxPoint x="450" y="440" as="sourcePoint" />
            <mxPoint x="590" y="440" as="targetPoint" />
          </mxGeometry>
        </mxCell>
        <mxCell id="Hnp2i-aEPVbjj3ETL5oO-30" value="좌석 조회" style="edgeLabel;html=1;align=center;verticalAlign=middle;resizable=0;points=[];fontStyle=1" vertex="1" connectable="0" parent="Hnp2i-aEPVbjj3ETL5oO-29">
          <mxGeometry x="-0.0476" relative="1" as="geometry">
            <mxPoint y="-15" as="offset" />
          </mxGeometry>
        </mxCell>
        <mxCell id="Hnp2i-aEPVbjj3ETL5oO-31" value="" style="endArrow=classic;html=1;rounded=0;fontStyle=1" edge="1" parent="1">
          <mxGeometry width="50" height="50" relative="1" as="geometry">
            <mxPoint x="590" y="480" as="sourcePoint" />
            <mxPoint x="450" y="480" as="targetPoint" />
          </mxGeometry>
        </mxCell>
        <mxCell id="Hnp2i-aEPVbjj3ETL5oO-32" value="예약 가능좌석 반환" style="edgeLabel;html=1;align=center;verticalAlign=middle;resizable=0;points=[];fontStyle=1" vertex="1" connectable="0" parent="Hnp2i-aEPVbjj3ETL5oO-31">
          <mxGeometry x="0.0905" y="2" relative="1" as="geometry">
            <mxPoint y="-12" as="offset" />
          </mxGeometry>
        </mxCell>
        <mxCell id="Hnp2i-aEPVbjj3ETL5oO-33" value="" style="html=1;points=[[0,0,0,0,5],[0,1,0,0,-5],[1,0,0,0,5],[1,1,0,0,-5]];perimeter=orthogonalPerimeter;outlineConnect=0;targetShapes=umlLifeline;portConstraint=eastwest;newEdgeStyle={&quot;curved&quot;:0,&quot;rounded&quot;:0};fontStyle=1" vertex="1" parent="1">
          <mxGeometry x="425" y="350" width="10" height="100" as="geometry" />
        </mxCell>
        <mxCell id="Hnp2i-aEPVbjj3ETL5oO-35" value="" style="endArrow=none;html=1;rounded=0;fontStyle=1" edge="1" parent="1" target="Hnp2i-aEPVbjj3ETL5oO-34">
          <mxGeometry width="50" height="50" relative="1" as="geometry">
            <mxPoint x="599.5" y="640" as="sourcePoint" />
            <mxPoint x="599.5" y="200" as="targetPoint" />
          </mxGeometry>
        </mxCell>
        <mxCell id="Hnp2i-aEPVbjj3ETL5oO-34" value="" style="html=1;points=[[0,0,0,0,5],[0,1,0,0,-5],[1,0,0,0,5],[1,1,0,0,-5]];perimeter=orthogonalPerimeter;outlineConnect=0;targetShapes=umlLifeline;portConstraint=eastwest;newEdgeStyle={&quot;curved&quot;:0,&quot;rounded&quot;:0};fontStyle=1" vertex="1" parent="1">
          <mxGeometry x="595" y="430" width="10" height="100" as="geometry" />
        </mxCell>
        <mxCell id="Hnp2i-aEPVbjj3ETL5oO-36" value="" style="endArrow=classic;html=1;rounded=0;fontStyle=1" edge="1" parent="1">
          <mxGeometry width="50" height="50" relative="1" as="geometry">
            <mxPoint x="610" y="520" as="sourcePoint" />
            <mxPoint x="750" y="520" as="targetPoint" />
          </mxGeometry>
        </mxCell>
        <mxCell id="Hnp2i-aEPVbjj3ETL5oO-37" value="예약 요청" style="edgeLabel;html=1;align=center;verticalAlign=middle;resizable=0;points=[];fontStyle=1" vertex="1" connectable="0" parent="Hnp2i-aEPVbjj3ETL5oO-36">
          <mxGeometry x="-0.0476" relative="1" as="geometry">
            <mxPoint y="-15" as="offset" />
          </mxGeometry>
        </mxCell>
        <mxCell id="Hnp2i-aEPVbjj3ETL5oO-39" value="" style="endArrow=classic;html=1;rounded=0;fontStyle=1" edge="1" parent="1">
          <mxGeometry width="50" height="50" relative="1" as="geometry">
            <mxPoint x="750" y="560" as="sourcePoint" />
            <mxPoint x="610" y="560" as="targetPoint" />
          </mxGeometry>
        </mxCell>
        <mxCell id="Hnp2i-aEPVbjj3ETL5oO-40" value="좌석 임시배정" style="edgeLabel;html=1;align=center;verticalAlign=middle;resizable=0;points=[];fontStyle=1" vertex="1" connectable="0" parent="Hnp2i-aEPVbjj3ETL5oO-39">
          <mxGeometry x="0.0905" y="2" relative="1" as="geometry">
            <mxPoint y="-12" as="offset" />
          </mxGeometry>
        </mxCell>
        <mxCell id="Hnp2i-aEPVbjj3ETL5oO-42" value="" style="endArrow=none;html=1;rounded=0;fontStyle=1" edge="1" parent="1" target="Hnp2i-aEPVbjj3ETL5oO-41">
          <mxGeometry width="50" height="50" relative="1" as="geometry">
            <mxPoint x="767" y="810" as="sourcePoint" />
            <mxPoint x="766.5" y="200" as="targetPoint" />
          </mxGeometry>
        </mxCell>
        <mxCell id="Hnp2i-aEPVbjj3ETL5oO-41" value="" style="html=1;points=[[0,0,0,0,5],[0,1,0,0,-5],[1,0,0,0,5],[1,1,0,0,-5]];perimeter=orthogonalPerimeter;outlineConnect=0;targetShapes=umlLifeline;portConstraint=eastwest;newEdgeStyle={&quot;curved&quot;:0,&quot;rounded&quot;:0};fontStyle=1" vertex="1" parent="1">
          <mxGeometry x="762" y="510" width="10" height="100" as="geometry" />
        </mxCell>
        <mxCell id="Hnp2i-aEPVbjj3ETL5oO-43" value="" style="endArrow=classic;html=1;rounded=0;fontStyle=1" edge="1" parent="1">
          <mxGeometry width="50" height="50" relative="1" as="geometry">
            <mxPoint x="780" y="600" as="sourcePoint" />
            <mxPoint x="920" y="600" as="targetPoint" />
          </mxGeometry>
        </mxCell>
        <mxCell id="Hnp2i-aEPVbjj3ETL5oO-44" value="결제 요청" style="edgeLabel;html=1;align=center;verticalAlign=middle;resizable=0;points=[];fontStyle=1" vertex="1" connectable="0" parent="Hnp2i-aEPVbjj3ETL5oO-43">
          <mxGeometry x="-0.0476" relative="1" as="geometry">
            <mxPoint y="-15" as="offset" />
          </mxGeometry>
        </mxCell>
        <mxCell id="Hnp2i-aEPVbjj3ETL5oO-46" value="" style="endArrow=none;html=1;rounded=0;fontStyle=1" edge="1" parent="1" target="Hnp2i-aEPVbjj3ETL5oO-45">
          <mxGeometry width="50" height="50" relative="1" as="geometry">
            <mxPoint x="930" y="790" as="sourcePoint" />
            <mxPoint x="929.5" y="200" as="targetPoint" />
          </mxGeometry>
        </mxCell>
        <mxCell id="Hnp2i-aEPVbjj3ETL5oO-45" value="" style="html=1;points=[[0,0,0,0,5],[0,1,0,0,-5],[1,0,0,0,5],[1,1,0,0,-5]];perimeter=orthogonalPerimeter;outlineConnect=0;targetShapes=umlLifeline;portConstraint=eastwest;newEdgeStyle={&quot;curved&quot;:0,&quot;rounded&quot;:0};fontStyle=1" vertex="1" parent="1">
          <mxGeometry x="925" y="585" width="10" height="135" as="geometry" />
        </mxCell>
        <mxCell id="Hnp2i-aEPVbjj3ETL5oO-47" value="" style="endArrow=classic;html=1;rounded=0;fontStyle=1" edge="1" parent="1">
          <mxGeometry width="50" height="50" relative="1" as="geometry">
            <mxPoint x="920" y="700" as="sourcePoint" />
            <mxPoint x="268" y="700" as="targetPoint" />
          </mxGeometry>
        </mxCell>
        <mxCell id="Hnp2i-aEPVbjj3ETL5oO-48" value="좌석 배정" style="edgeLabel;html=1;align=center;verticalAlign=middle;resizable=0;points=[];fontStyle=1" vertex="1" connectable="0" parent="Hnp2i-aEPVbjj3ETL5oO-47">
          <mxGeometry x="0.0905" y="2" relative="1" as="geometry">
            <mxPoint y="-12" as="offset" />
          </mxGeometry>
        </mxCell>
        <mxCell id="Hnp2i-aEPVbjj3ETL5oO-49" value="" style="endArrow=classic;html=1;rounded=0;fontStyle=1" edge="1" parent="1">
          <mxGeometry width="50" height="50" relative="1" as="geometry">
            <mxPoint x="235" y="720" as="sourcePoint" />
            <mxPoint x="115" y="719" as="targetPoint" />
          </mxGeometry>
        </mxCell>
        <mxCell id="Hnp2i-aEPVbjj3ETL5oO-50" value="예약 완료 및 토큰 만료" style="edgeLabel;html=1;align=center;verticalAlign=middle;resizable=0;points=[];fontStyle=1" vertex="1" connectable="0" parent="Hnp2i-aEPVbjj3ETL5oO-49">
          <mxGeometry x="0.0905" y="2" relative="1" as="geometry">
            <mxPoint y="-12" as="offset" />
          </mxGeometry>
        </mxCell>
      </root>
    </mxGraphModel>
  </diagram>
</mxfile>
